<svg width="44" height="44" viewBox="0 0 44 44" fill="none" xmlns="http://www.w3.org/2000/svg">
<path d="M22.1126 13.8421C19.9789 13.8421 17.9326 14.6897 16.4239 16.1984C14.9152 17.7071 14.0676 19.7533 14.0676 21.887C14.0676 24.0206 14.9152 26.0669 16.4239 27.5756C17.9326 29.0843 19.9789 29.9319 22.1126 29.9319C24.2463 29.9319 26.2926 29.0843 27.8013 27.5756C29.3101 26.0669 30.1577 24.0206 30.1577 21.887C30.1577 19.7533 29.3101 17.7071 27.8013 16.1984C26.2926 14.6897 24.2463 13.8421 22.1126 13.8421Z" fill="#F81E1E"/>
<path d="M42 18.8641C40.6897 10.1776 33.8242 3.31132 25.1376 2M19.0716 2.00302C9.40748 3.4692 2 11.8128 2 21.887C2 31.9632 9.4115 40.3098 19.0817 41.772C21.0875 42.0753 23.1275 42.076 25.1335 41.774C33.8242 40.4647 40.6927 33.5953 42 24.9038M22.1126 13.8421C19.9789 13.8421 17.9326 14.6897 16.4239 16.1984C14.9152 17.7071 14.0676 19.7533 14.0676 21.887C14.0676 24.0206 14.9152 26.0669 16.4239 27.5756C17.9326 29.0843 19.9789 29.9319 22.1126 29.9319C24.2463 29.9319 26.2926 29.0843 27.8013 27.5756C29.3101 26.0669 30.1577 24.0206 30.1577 21.887C30.1577 19.7533 29.3101 17.7071 27.8013 16.1984C26.2926 14.6897 24.2463 13.8421 22.1126 13.8421Z" stroke="#F81E1E" stroke-width="4" stroke-linecap="round" stroke-linejoin="round"/>
</svg>
