<?xml version="1.0" standalone="no"?>
<!DOCTYPE svg PUBLIC "-//W3C//DTD SVG 20010904//EN"
 "http://www.w3.org/TR/2001/REC-SVG-20010904/DTD/svg10.dtd">
<svg version="1.0" xmlns="http://www.w3.org/2000/svg"
 width="700.000000pt" height="700.000000pt" viewBox="0 0 700.000000 700.000000"
 preserveAspectRatio="xMidYMid meet">
<metadata>
Created by potrace 1.14, written by Peter Selinger 2001-2017
</metadata>
<g transform="translate(0.000000,700.000000) scale(0.100000,-0.100000)"
fill="#000000" stroke="none">
<path d="M680 6989 c-93 -12 -214 -52 -290 -96 -84 -49 -234 -199 -283 -283
-47 -81 -83 -194 -97 -301 -14 -116 -14 -5502 0 -5618 24 -190 88 -319 225
-456 137 -137 266 -201 456 -225 116 -14 5502 -14 5618 0 190 24 319 88 456
225 137 137 201 266 225 456 14 116 14 5502 0 5618 -24 190 -88 319 -225 456
-137 137 -266 201 -456 225 -102 12 -5530 12 -5629 -1z m5215 -1074 c75 -43
113 -163 75 -235 -37 -72 -101 -113 -176 -113 -125 0 -214 115 -183 238 31
123 170 177 284 110z m-1240 -1245 c616 -59 1006 -376 1135 -924 72 -304 39
-725 -86 -1105 -202 -616 -631 -1025 -1234 -1176 -224 -56 -251 -58 -1002 -62
-671 -4 -698 -4 -697 14 0 10 64 403 142 873 l142 855 343 3 c293 2 342 0 342
-12 0 -8 -40 -261 -90 -561 -49 -300 -90 -555 -90 -567 0 -20 2 -20 303 -15
260 4 316 8 401 27 477 103 742 429 858 1055 29 159 32 434 5 540 -57 224
-193 364 -418 429 -125 36 -245 46 -543 46 l-264 0 -11 -67 c-7 -38 -14 -83
-17 -100 l-6 -33 -345 0 -345 0 6 28 c6 28 126 751 126 758 0 9 1242 3 1345
-6z"/>
</g>
</svg>
